<svg xmlns="http://www.w3.org/2000/svg" xmlns:xlink="http://www.w3.org/1999/xlink" width="30" height="30" viewBox="0 0 30 30">
  <defs>
    <clipPath id="clip-path">
      <rect id="Rectangle_17502" data-name="Rectangle 17502" width="30" height="30" transform="translate(333 197)" fill="#fff" stroke="#707070" stroke-width="1"/>
    </clipPath>
    <linearGradient id="linear-gradient" x1="0.5" x2="0.5" y2="1" gradientUnits="objectBoundingBox">
      <stop offset="0" stop-color="#faeb45"/>
      <stop offset="0.125" stop-color="#faeb45"/>
      <stop offset="0.285" stop-color="#bda12e"/>
      <stop offset="0.485" stop-color="#faeb45"/>
      <stop offset="1" stop-color="#faeb45"/>
    </linearGradient>
    <linearGradient id="linear-gradient-2" x1="0.5" x2="0.5" y2="1" gradientUnits="objectBoundingBox">
      <stop offset="0" stop-color="#fff"/>
      <stop offset="0.125" stop-color="#f0f0f0"/>
      <stop offset="0.285" stop-color="#a4a4a4"/>
      <stop offset="0.485" stop-color="#c9c9c9"/>
      <stop offset="1" stop-color="#fff"/>
    </linearGradient>
  </defs>
  <g id="Joker" transform="translate(-333 -197)" clip-path="url(#clip-path)">
    <g id="Group_8746" data-name="Group 8746" transform="translate(333 204.2)">
      <path id="Path_5276" data-name="Path 5276" d="M1719.59,838.641l4.341-14.287h5.3l-1.386,4.521,5.063-4.521,5.968.3-4.943,5.485,1.808.3a3.388,3.388,0,0,1,.723,1.145c.06.422.362,1.808,0,2.23s-3.135.723-3.135.723l-.422.543,1.447,3.557h-6.149s-1.929-4.823-1.989-4.823-1.386,4.521-1.386,4.521Z" transform="translate(-1710 -824.001)" fill="url(#linear-gradient)"/>
      <path id="Path_5275" data-name="Path 5275" d="M1710.88,838.641l1.783-5.208-.392-1.676,2.889-2.925,1.534,2.425,2.425-6.849,4.815.606-3.638,10.63s-2.14,1.962-2.176,2.069a24.66,24.66,0,0,1-2.354.927Z" transform="translate(-1710.001 -824.001)" fill="url(#linear-gradient-2)"/>
      <path id="Path_5274" data-name="Path 5274" d="M-1082.577,391.993l-.093-.012a2.139,2.139,0,0,0-.29-.026l-.867-.01c-1.006-.012-2.047-.024-3.074-.024h-.406a2,2,0,0,0-1.265.524c-.678.605-1.359,1.225-2.019,1.824l-.588.534.435-1.363.469-1.469h-5.84q-2.751,0-5.5-.009c-.3,0-.313.189-.368.376q-.784,2.633-1.566,5.268c-.034.114-.079.225-.142.4l-1.22-2.322c-.907.774-1.8,1.505-2.653,2.279a5.843,5.843,0,0,0-.968,1.15,1.554,1.554,0,0,0-.04,1.573.938.938,0,0,1,.045.626c-.572,1.769-1.168,3.53-1.755,5.294-.038.115-.056.236-.085.362,1.8,0,3.559.009,5.323-.007a5.046,5.046,0,0,0,3.775-1.43l.066-.039-.47,1.429h6.692l.254-.777.742-2.273.063-.2c.344.76.694,1.527,1.043,2.285a1.612,1.612,0,0,0,1.342.962c.954.013,1.905.015,2.71.015h3.569l-.69-1.578c-.025-.057-.047-.11-.069-.16-.05-.118-.1-.23-.157-.35l-.519-1.056-.3-.607h2.589l-.168-.729a2.262,2.262,0,0,0,1.349-1.352,1.822,1.822,0,0,0-.081-1.632,1.668,1.668,0,0,0-.225-.271,1.6,1.6,0,0,0-.153-.845,1.765,1.765,0,0,0-1.432-.936c-.1-.013-.191-.02-.285-.024l1.75-1.741,1.373-1.366c.088-.088.169-.175.254-.267l.132-.142,1.523-1.623Zm-24.959,7.487a2.337,2.337,0,0,1,.44-.528c.569-.486,1.155-.951,1.769-1.453.341.508.714.987,1,1.511.339.617-.419,1.658-1.136,1.606-.143-.01-.284-.036-.492-.062l.139.8h-1.294l.571-.755a.733.733,0,0,0-.185-.007.648.648,0,0,1-.81-.216.771.771,0,0,1-.005-.9Zm-1.377,6.393c.311-1.037.591-2.006.9-2.966a.471.471,0,0,1,.359-.239c.793-.019,1.588-.024,2.381.006a1.074,1.074,0,0,0,1.023-.522,5.114,5.114,0,0,0,.509-1.043q1.284-3.79,2.53-7.594a.5.5,0,0,1,.2-.325.5.5,0,0,1,.375-.084c1.15.022,2.3.009,3.5.009l-.988,3-1.766,5.368a16.415,16.415,0,0,1-.693,1.549,4.9,4.9,0,0,1-4.469,2.83c-1.272.04-2.542.01-3.872.01Zm23.643-7.334c.6.084.778.443.476.974-.034.059-.074.114-.087.133a2.2,2.2,0,0,1,.637.452.812.812,0,0,1-.035.613,1.1,1.1,0,0,1-1.019.747,1.05,1.05,0,0,1-.442-.1l-.272-.12.19.822h-1.183l.616-.764a3.511,3.511,0,0,1-.752.109c-.375,0-.538-.142-.6-.434-.126-.636.332-1.117,1.167-1.224,0-.78.394-1.229,1.064-1.229a1.7,1.7,0,0,1,.243.02Zm2.2-5.045c-2.1,2.087-4.193,4.179-6.306,6.253a.664.664,0,0,0-.134.908c.786,1.559,1.551,3.129,2.322,4.7.068.138.125.282.2.465h-1.847c-.9,0-1.8,0-2.694-.015-.115,0-.275-.177-.335-.308-.707-1.533-1.4-3.073-2.1-4.61-.028-.063-.061-.123-.146-.294l-1.7,5.209h-4.318l4.178-12.7h4.126l-1.628,5.1.086.049c.678-.6,1.363-1.185,2.034-1.789,1.17-1.053,2.328-2.119,3.5-3.167a.88.88,0,0,1,.518-.237h.4c1.31,0,2.619.02,3.929.034a2.572,2.572,0,0,1,.261.031c-.134.149-.234.264-.344.371Z" transform="translate(1110.369 -391.921)"/>
    </g>
  </g>
</svg>
