<svg xmlns="http://www.w3.org/2000/svg" xmlns:xlink="http://www.w3.org/1999/xlink" width="30" height="30" viewBox="0 0 30 30">
  <defs>
    <clipPath id="clip-path">
      <rect id="Rectangle_17466" data-name="Rectangle 17466" width="30" height="30" transform="translate(28 445)" fill="#fff" stroke="#707070" stroke-width="1"/>
    </clipPath>
  </defs>
  <g id="PG_Soft" data-name="PG Soft" transform="translate(-28 -445)" clip-path="url(#clip-path)">
    <g id="Group_8746" data-name="Group 8746" transform="translate(28 453.4)">
      <path id="Path_4997" data-name="Path 4997" d="M287.5-1051.739v1.214h1.185v-1.214H287.5Z" transform="translate(-281.962 1051.739)" fill="#fff"/>
      <path id="Path_4998" data-name="Path 4998" d="M333.521-771.718a4.639,4.639,0,0,0-.021.607v.586h1.214v-1.214h-.586A4.618,4.618,0,0,0,333.521-771.718Z" transform="translate(-326.6 780.031)" fill="#fff"/>
      <path id="Path_4999" data-name="Path 4999" d="M333.5-724.739v1.214h1.214v-1.214H333.5Z" transform="translate(-326.6 734.423)" fill="#fff"/>
      <path id="Path_5000" data-name="Path 5000" d="M286.521-1004.718a4.648,4.648,0,0,0-.021.607v.586h1.214v-1.214h-.586A4.655,4.655,0,0,0,286.521-1004.718Z" transform="translate(-280.992 1006.131)" fill="#fff"/>
      <path id="Path_5001" data-name="Path 5001" d="M333.521-1051.718a4.641,4.641,0,0,0-.021.607v.586h1.214v-1.214h-.586A4.581,4.581,0,0,0,333.521-1051.718Z" transform="translate(-326.6 1051.739)" fill="#fff"/>
      <path id="Path_5002" data-name="Path 5002" d="M286.521-771.718a4.642,4.642,0,0,0-.021.607v.586h1.214v-1.214h-.586A4.618,4.618,0,0,0,286.521-771.718Z" transform="translate(-280.992 780.031)" fill="#fff"/>
      <path id="Path_5003" data-name="Path 5003" d="M381.7-771.724l-.6-.009-.6-.006v1.214h1.214l-.006-.6Z" transform="translate(-372.208 780.031)" fill="#fff"/>
      <path id="Path_5108" data-name="Path 5108" d="M381.7-771.724l-.6-.009-.6-.006v1.214h1.214l-.006-.6Z" transform="translate(-372.208 781.423)" fill="#e519dc"/>
      <path id="Path_5004" data-name="Path 5004" d="M241.7-771.724l-.6-.009-.6-.006v1.214h1.214l-.006-.6Z" transform="translate(-236.354 780.031)" fill="#fff"/>
      <path id="Path_5005" data-name="Path 5005" d="M240.5-724.739v1.214h1.214v-1.214H240.5Z" transform="translate(-236.354 734.423)" fill="#fff"/>
      <path id="Path_5006" data-name="Path 5006" d="M240.5-1004.739v1.214h1.214v-1.214H240.5Z" transform="translate(-236.354 1006.131)" fill="#fff"/>
      <path id="Path_5007" data-name="Path 5007" d="M286.5-724.739l.006.6.009.6.6.009.6.006v-1.214H286.5Z" transform="translate(-280.992 734.423)" fill="#fff"/>
      <path id="Path_5008" data-name="Path 5008" d="M241.7-1051.724l-.6-.009-.6-.006v1.214h1.214l-.006-.6Z" transform="translate(-236.354 1051.739)" fill="#fff"/>
      <path id="Path_5009" data-name="Path 5009" d="M333.5-1004.739v1.214h1.214v-1.214H333.5Z" transform="translate(-326.6 1006.131)" fill="#fff"/>
      <path id="Path_5010" data-name="Path 5010" d="M474.7-911.555l-.58-.009a5.726,5.726,0,0,0-.6.012,4.743,4.743,0,0,0-.021.61v.586h1.214l-.006-.6Z" transform="translate(-462.454 915.716)" fill="#fff"/>
      <path id="Path_5011" data-name="Path 5011" d="M520.5-817.739v1.214l.6-.006.6-.009.009-.6.006-.6H520.5Z" transform="translate(-508.062 824.669)" fill="#fff"/>
      <path id="Path_5012" data-name="Path 5012" d="M473.5-864.739v1.214h1.214v-1.214H473.5Z" transform="translate(-462.454 870.277)" fill="#fff"/>
      <path id="Path_5013" data-name="Path 5013" d="M193.521-1051.718a4.644,4.644,0,0,0-.021.607v.586h1.214v-1.214h-.586A4.58,4.58,0,0,0,193.521-1051.718Z" transform="translate(-190.746 1051.739)" fill="#fff"/>
      <path id="Path_5014" data-name="Path 5014" d="M473.5-817.739l.006.6.009.6H474.7l.009-.6.006-.6H473.5Z" transform="translate(-462.454 824.669)" fill="#fff"/>
      <path id="Path_5015" data-name="Path 5015" d="M473.5-1004.739v1.214h1.214v-1.214H473.5Z" transform="translate(-462.454 1006.131)" fill="#fff"/>
      <path id="Path_5016" data-name="Path 5016" d="M426.521-771.718a4.639,4.639,0,0,0-.021.607v.586h1.214v-1.214h-.586A4.618,4.618,0,0,0,426.521-771.718Z" transform="translate(-416.846 780.031)" fill="#fff"/>
      <path id="Path_5017" data-name="Path 5017" d="M381.7-1004.724l-.6-.009-.6-.006v1.214h1.214l-.006-.6Z" transform="translate(-372.208 1006.131)" fill="#fff"/>
      <path id="Path_5018" data-name="Path 5018" d="M474.7-771.555l-.58-.009a5.658,5.658,0,0,0-.6.012,4.742,4.742,0,0,0-.021.61v.586h1.214l-.006-.6Z" transform="translate(-462.454 779.862)" fill="#fff"/>
      <path id="Path_5019" data-name="Path 5019" d="M381.7-1051.724l-.6-.009-.6-.006v1.214h1.214l-.006-.6Z" transform="translate(-372.208 1051.739)" fill="#fff"/>
      <path id="Path_5020" data-name="Path 5020" d="M426.5-957.739l.006.6.009.6.6.009.6.006v-1.214H426.5Z" transform="translate(-416.846 960.523)" fill="#fff"/>
      <path id="Path_5021" data-name="Path 5021" d="M426.521-1051.718a4.641,4.641,0,0,0-.021.607v.586h1.214v-1.214h-.586A4.581,4.581,0,0,0,426.521-1051.718Z" transform="translate(-416.846 1051.739)" fill="#fff"/>
      <path id="Path_5022" data-name="Path 5022" d="M426.521-1004.718a4.645,4.645,0,0,0-.021.607v.586h1.214v-1.214h-.586A4.656,4.656,0,0,0,426.521-1004.718Z" transform="translate(-416.846 1006.131)" fill="#fff"/>
      <path id="Path_5023" data-name="Path 5023" d="M473.5-957.739l.006.6.009.6H474.7l.009-.6.006-.6H473.5Z" transform="translate(-462.454 960.523)" fill="#fff"/>
      <path id="Path_5024" data-name="Path 5024" d="M101.7-771.724l-.6-.009-.6-.006v1.214h1.214l-.006-.6Z" transform="translate(-100.5 780.031)" fill="#fff"/>
      <path id="Path_5025" data-name="Path 5025" d="M100.5-724.739v1.214h1.214v-1.214H100.5Z" transform="translate(-100.5 734.423)" fill="#fff"/>
      <path id="Path_5026" data-name="Path 5026" d="M100.5-817.739v1.214l.6-.006.6-.009.009-.6.006-.6H100.5Z" transform="translate(-100.5 824.669)" fill="#fff"/>
      <path id="Path_5027" data-name="Path 5027" d="M100.5-677.739v1.214l.6-.006.6-.009.009-.6.006-.6H100.5Z" transform="translate(-100.5 688.815)" fill="#fff"/>
      <path id="Path_5028" data-name="Path 5028" d="M101.7-911.724l-.6-.009-.6-.006v1.214h1.214l-.006-.6Z" transform="translate(-100.5 915.885)" fill="#fff"/>
      <path id="Path_5029" data-name="Path 5029" d="M100.5-864.739v1.214h1.214v-1.214H100.5Z" transform="translate(-100.5 870.277)" fill="#fff"/>
      <path id="Path_5030" data-name="Path 5030" d="M101.7-631.724l-.6-.009-.6-.006v1.214h1.214l-.006-.6Z" transform="translate(-100.5 644.177)" fill="#fff"/>
      <path id="Path_5031" data-name="Path 5031" d="M980.7-863.54v-1.185l-.6-.009-.6-.006v1.214l.6-.006Z" transform="translate(-953.469 870.277)" fill="#fff"/>
      <path id="Path_5032" data-name="Path 5032" d="M700.7-863.54v-1.185l-.6-.009-.6-.006v1.214l.6-.006Z" transform="translate(-681.761 870.277)" fill="#fff"/>
      <path id="Path_5033" data-name="Path 5033" d="M1073.7-863.54v-1.185l-.6-.009-.6-.006v1.214l.6-.006Z" transform="translate(-1043.715 870.277)" fill="#14e591"/>
      <path id="Path_5034" data-name="Path 5034" d="M475.655-1049.555v-1.185H474.5v1.185h1.155Z" transform="translate(-463.424 1050.769)" fill="#ff6e00"/>
      <path id="Path_5035" data-name="Path 5035" d="M521.7-863.54v-1.185l-.6-.009-.6-.006v1.214l.6-.006Z" transform="translate(-508.062 870.277)" fill="#fff"/>
      <path id="Path_5036" data-name="Path 5036" d="M193.5-1004.739v1.214h1.214v-1.214H193.5Z" transform="translate(-190.746 1006.131)" fill="#fff"/>
      <path id="Path_5037" data-name="Path 5037" d="M100.5-957.739v1.214l.6-.006.6-.009.009-.6.006-.6H100.5Z" transform="translate(-100.5 960.523)" fill="#fff"/>
      <path id="Path_5107" data-name="Path 5107" d="M100.5-957.739v1.214l.6-.006.6-.009.009-.6.006-.6H100.5Z" transform="translate(-100.5 959.131)" fill="#6413e5"/>
      <path id="Path_5038" data-name="Path 5038" d="M147.5-1004.739v1.214h1.185v-1.214H147.5Z" transform="translate(-146.108 1006.131)" fill="#fff"/>
      <path id="Path_5039" data-name="Path 5039" d="M147.5-957.739v1.214h1.185v-1.214H147.5Z" transform="translate(-146.108 960.523)" fill="#fff"/>
      <path id="Path_5040" data-name="Path 5040" d="M147.5-1051.739v1.214h1.185v-1.214H147.5Z" transform="translate(-146.108 1051.739)" fill="#fff"/>
      <path id="Path_5041" data-name="Path 5041" d="M193.5-724.739v1.214h1.214v-1.214H193.5Z" transform="translate(-190.746 734.423)" fill="#fff"/>
      <path id="Path_5042" data-name="Path 5042" d="M147.5-911.739v1.214h1.185v-1.214H147.5Z" transform="translate(-146.108 915.885)" fill="#fff"/>
      <path id="Path_5043" data-name="Path 5043" d="M193.521-771.718a4.642,4.642,0,0,0-.021.607v.586h1.214v-1.214h-.586A4.617,4.617,0,0,0,193.521-771.718Z" transform="translate(-190.746 780.031)" fill="#fff"/>
      <path id="Path_5044" data-name="Path 5044" d="M147.5-630.739v1.185h1.185v-1.185H147.5Z" transform="translate(-146.108 643.207)" fill="#1cbfe5"/>
      <path id="Path_5045" data-name="Path 5045" d="M147.5-864.739v1.214h1.185v-1.214H147.5Z" transform="translate(-146.108 870.277)" fill="#fff"/>
      <path id="Path_5046" data-name="Path 5046" d="M147.5-677.739v1.214h1.185v-1.214H147.5Z" transform="translate(-146.108 688.815)" fill="#fff"/>
      <path id="Path_5047" data-name="Path 5047" d="M147.5-724.739v1.214h1.185v-1.214H147.5Z" transform="translate(-146.108 734.423)" fill="#fff"/>
      <path id="Path_5048" data-name="Path 5048" d="M147.5-771.739v1.214h1.185v-1.214H147.5Z" transform="translate(-146.108 780.031)" fill="#fff"/>
      <path id="Path_5049" data-name="Path 5049" d="M147.5-817.739v1.214h1.185v-1.214H147.5Z" transform="translate(-146.108 824.669)" fill="#fff"/>
      <path id="Path_5050" data-name="Path 5050" d="M426.5-817.739l.006.6.009.6.6.009.6.006v-1.214H426.5Z" transform="translate(-416.846 824.669)" fill="#fff"/>
      <path id="Path_5051" data-name="Path 5051" d="M932.5-1004.739v1.214h1.214v-1.214H932.5Z" transform="translate(-907.861 1006.131)" fill="#fff"/>
      <path id="Path_5052" data-name="Path 5052" d="M932.5-864.739v1.214h1.214v-1.214H932.5Z" transform="translate(-907.861 870.277)" fill="#fff"/>
      <path id="Path_5053" data-name="Path 5053" d="M979.5-724.739v1.214l.6-.006.6-.009.009-.6.006-.6H979.5Z" transform="translate(-953.469 734.423)" fill="#fff"/>
      <path id="Path_5054" data-name="Path 5054" d="M885.521-631.718a4.642,4.642,0,0,0-.021.607v.586h1.214v-1.214h-.586A4.655,4.655,0,0,0,885.521-631.718Z" transform="translate(-862.253 644.177)" fill="#fff"/>
      <path id="Path_5055" data-name="Path 5055" d="M932.5-677.739l.006.6.009.6H933.7l.009-.6.006-.6H932.5Z" transform="translate(-907.861 688.815)" fill="#fff"/>
      <path id="Path_5056" data-name="Path 5056" d="M979.5-677.739v1.214l.6-.006.6-.009.009-.6.006-.6H979.5Z" transform="translate(-953.469 688.815)" fill="#fff"/>
      <path id="Path_5057" data-name="Path 5057" d="M932.5-817.739l.006.6.009.6H933.7l.009-.6.006-.6H932.5Z" transform="translate(-907.861 824.669)" fill="#fff"/>
      <path id="Path_5058" data-name="Path 5058" d="M885.668-864.7c-.006.021-.009.29-.006.6l.009.563.6.009.6.006v-1.214h-.592C885.822-864.739,885.68-864.73,885.668-864.7Z" transform="translate(-862.409 870.277)" fill="#fff"/>
      <path id="Path_5059" data-name="Path 5059" d="M885.5-817.739l.006.6.009.6.6.009.6.006v-1.214H885.5Z" transform="translate(-862.253 824.669)" fill="#fff"/>
      <path id="Path_5060" data-name="Path 5060" d="M933.7-631.555l-.581-.009a5.664,5.664,0,0,0-.6.012,4.727,4.727,0,0,0-.021.61v.586h1.214l-.006-.6Z" transform="translate(-907.861 644.008)" fill="#fff"/>
      <path id="Path_5105" data-name="Path 5105" d="M933.7-631.555l-.581-.009a5.664,5.664,0,0,0-.6.012,4.727,4.727,0,0,0-.021.61v.586h1.214l-.006-.6Z" transform="translate(-906.47 644.008)" fill="#ff4b00"/>
      <path id="Path_5061" data-name="Path 5061" d="M885.5-677.739l.006.6.009.6.6.009.6.006v-1.214H885.5Z" transform="translate(-862.253 688.815)" fill="#fff"/>
      <path id="Path_5062" data-name="Path 5062" d="M885.521-1051.718a4.641,4.641,0,0,0-.021.607v.586h1.214v-1.214h-.586A4.58,4.58,0,0,0,885.521-1051.718Z" transform="translate(-862.253 1051.739)" fill="#fff"/>
      <path id="Path_5063" data-name="Path 5063" d="M885.521-1004.718a4.645,4.645,0,0,0-.021.607v.586h1.214v-1.214h-.586A4.655,4.655,0,0,0,885.521-1004.718Z" transform="translate(-862.253 1006.131)" fill="#fff"/>
      <path id="Path_5064" data-name="Path 5064" d="M933.7-1051.555l-.581-.009a5.664,5.664,0,0,0-.6.012,4.727,4.727,0,0,0-.021.61v.586h1.214l-.006-.6Z" transform="translate(-907.861 1051.57)" fill="#fff"/>
      <path id="Path_5065" data-name="Path 5065" d="M1025.5-957.739l.006.6.009.6.6.009.6.006v-1.214H1025.5Z" transform="translate(-998.107 960.523)" fill="#fff"/>
      <path id="Path_5066" data-name="Path 5066" d="M979.5-817.739v1.214l.6-.006.6-.009.009-.6.006-.6H979.5Z" transform="translate(-953.469 824.669)" fill="#fff"/>
      <path id="Path_5067" data-name="Path 5067" d="M1025.5-817.739l.006.6.009.6.6.009.6.006v-1.214H1025.5Z" transform="translate(-998.107 824.669)" fill="#fff"/>
      <path id="Path_5068" data-name="Path 5068" d="M1025.668-864.7c-.006.021-.009.29-.006.6l.009.563.6.009.6.006v-1.214h-.592C1025.822-864.739,1025.68-864.73,1025.668-864.7Z" transform="translate(-998.263 870.277)" fill="#fff"/>
      <path id="Path_5069" data-name="Path 5069" d="M1072.5-817.739v1.214l.6-.006.6-.009.009-.6.006-.6H1072.5Z" transform="translate(-1043.715 824.669)" fill="#fff"/>
      <path id="Path_5070" data-name="Path 5070" d="M1073.7-771.724l-.6-.009-.6-.006v1.214h1.214l-.006-.6Z" transform="translate(-1043.715 780.031)" fill="#fff"/>
      <path id="Path_5071" data-name="Path 5071" d="M1025.521-1004.718a4.645,4.645,0,0,0-.021.607v.586h1.214v-1.214h-.586A4.654,4.654,0,0,0,1025.521-1004.718Z" transform="translate(-998.107 1006.131)" fill="#fff"/>
      <path id="Path_5072" data-name="Path 5072" d="M979.5-957.739v1.214l.6-.006.6-.009.009-.6.006-.6H979.5Z" transform="translate(-953.469 960.523)" fill="#fff"/>
      <path id="Path_5073" data-name="Path 5073" d="M980.7-1004.724l-.6-.009-.6-.006v1.214h1.214l-.006-.6Z" transform="translate(-953.469 1006.131)" fill="#fff"/>
      <path id="Path_5074" data-name="Path 5074" d="M521.7-911.724l-.6-.009-.6-.006v1.214h1.214l-.006-.6Z" transform="translate(-508.062 915.885)" fill="#fff"/>
      <path id="Path_5075" data-name="Path 5075" d="M1025.521-771.718a4.639,4.639,0,0,0-.021.607v.586h1.214v-1.214h-.586A4.616,4.616,0,0,0,1025.521-771.718Z" transform="translate(-998.107 780.031)" fill="#fff"/>
      <path id="Path_5076" data-name="Path 5076" d="M1025.5-677.739l.006.6.009.6.6.009.6.006v-1.214H1025.5Z" transform="translate(-998.107 688.815)" fill="#fff"/>
      <path id="Path_5077" data-name="Path 5077" d="M1025.5-724.739l.006.6.009.6.6.009.6.006v-1.214H1025.5Z" transform="translate(-998.107 734.423)" fill="#fff"/>
      <path id="Path_5106" data-name="Path 5106" d="M1025.5-724.739l.006.6.009.6.6.009.6.006v-1.214H1025.5Z" transform="translate(-996.714 734.423)" fill="#ff1927"/>
      <path id="Path_5078" data-name="Path 5078" d="M700.7-911.724l-.6-.009-.6-.006v1.214h1.214l-.006-.6Z" transform="translate(-681.761 915.885)" fill="#fff"/>
      <path id="Path_5079" data-name="Path 5079" d="M699.5-817.739v1.214l.6-.006.6-.009.009-.6.006-.6H699.5Z" transform="translate(-681.761 824.669)" fill="#fff"/>
      <path id="Path_5080" data-name="Path 5080" d="M700.7-771.724l-.6-.009-.6-.006v1.214h1.214l-.006-.6Z" transform="translate(-681.761 780.031)" fill="#fff"/>
      <path id="Path_5081" data-name="Path 5081" d="M699.5-957.739v1.214l.6-.006.6-.009.009-.6.006-.6H699.5Z" transform="translate(-681.761 960.523)" fill="#fff"/>
      <path id="Path_5082" data-name="Path 5082" d="M699.5-724.739v1.214l.6-.006.6-.009.009-.6.006-.6H699.5Z" transform="translate(-681.761 734.423)" fill="#fff"/>
      <path id="Path_5083" data-name="Path 5083" d="M700.7-1004.724l-.6-.009-.6-.006v1.214h1.214l-.006-.6Z" transform="translate(-681.761 1006.131)" fill="#fff"/>
      <path id="Path_5084" data-name="Path 5084" d="M652.5-864.739v1.214h1.214v-1.214H652.5Z" transform="translate(-636.153 870.277)" fill="#fff"/>
      <path id="Path_5085" data-name="Path 5085" d="M652.5-724.739v1.214h1.214v-1.214H652.5Z" transform="translate(-636.153 734.423)" fill="#fff"/>
      <path id="Path_5086" data-name="Path 5086" d="M652.521-771.718a4.658,4.658,0,0,0-.021.607v.586h1.214v-1.214h-.586A4.618,4.618,0,0,0,652.521-771.718Z" transform="translate(-636.153 780.031)" fill="#fff"/>
      <path id="Path_5087" data-name="Path 5087" d="M520.5-957.739v1.214l.6-.006.6-.009.009-.6.006-.6H520.5Z" transform="translate(-508.062 960.523)" fill="#fff"/>
      <path id="Path_5088" data-name="Path 5088" d="M652.521-911.718a4.662,4.662,0,0,0-.021.607v.586h1.214v-1.214h-.586A4.643,4.643,0,0,0,652.521-911.718Z" transform="translate(-636.153 915.885)" fill="#e51972"/>
      <path id="Path_5089" data-name="Path 5089" d="M745.521-631.718a4.6,4.6,0,0,0-.021.607v.586h1.214v-1.214h-.586A4.651,4.651,0,0,0,745.521-631.718Z" transform="translate(-726.399 644.177)" fill="#fff"/>
      <path id="Path_5090" data-name="Path 5090" d="M652.5-817.739l.006.6.009.6.6.009.6.006v-1.214H652.5Z" transform="translate(-636.153 824.669)" fill="#fff"/>
      <path id="Path_5091" data-name="Path 5091" d="M745.521-1004.718a4.608,4.608,0,0,0-.021.607v.586h1.214v-1.214h-.586A4.651,4.651,0,0,0,745.521-1004.718Z" transform="translate(-726.399 1006.131)" fill="#fff"/>
      <path id="Path_5092" data-name="Path 5092" d="M840.7-631.724l-.6-.009-.6-.006v1.214h1.214l-.006-.6Z" transform="translate(-817.615 644.177)" fill="#fff"/>
      <path id="Path_5093" data-name="Path 5093" d="M745.5-677.739l.006.6.009.6.6.009.6.006v-1.214H745.5Z" transform="translate(-726.399 688.815)" fill="#fff"/>
      <path id="Path_5104" data-name="Path 5104" d="M745.5-677.739l.006.6.009.6.6.009.6.006v-1.214H745.5Z" transform="translate(-727.762 688.815)" fill="#238ce6"/>
      <path id="Path_5094" data-name="Path 5094" d="M792.5-1004.739v1.214h1.214v-1.214H792.5Z" transform="translate(-772.007 1006.131)" fill="#fff"/>
      <path id="Path_5095" data-name="Path 5095" d="M839.5-677.739v1.214l.6-.006.6-.009.009-.6.006-.6H839.5Z" transform="translate(-817.615 688.815)" fill="#fff"/>
      <path id="Path_5096" data-name="Path 5096" d="M792.5-677.739l.006.6.009.6.6.009.6.006v-1.214H792.5Z" transform="translate(-772.007 688.815)" fill="#fff"/>
      <path id="Path_5097" data-name="Path 5097" d="M840.7-1004.724l-.6-.009-.6-.006v1.214h1.214l-.006-.6Z" transform="translate(-817.615 1006.131)" fill="#fff"/>
      <path id="Path_5098" data-name="Path 5098" d="M792.521-1051.718a4.66,4.66,0,0,0-.021.607v.586h1.214v-1.214h-.586A4.579,4.579,0,0,0,792.521-1051.718Z" transform="translate(-772.007 1051.739)" fill="#fff"/>
      <path id="Path_5099" data-name="Path 5099" d="M745.5-957.739l.006.6.009.6.6.009.6.006v-1.214H745.5Z" transform="translate(-726.399 960.523)" fill="#fff"/>
      <path id="Path_5100" data-name="Path 5100" d="M745.5-724.739l.006.6.009.6.6.009.6.006v-1.214H745.5Z" transform="translate(-726.399 734.423)" fill="#fff"/>
      <path id="Path_5101" data-name="Path 5101" d="M746.5-1050.739v1.185h1.185v-1.185H746.5Z" transform="translate(-727.369 1050.769)" fill="#ffb918"/>
      <path id="Path_5102" data-name="Path 5102" d="M792.521-631.718a4.661,4.661,0,0,0-.021.607v.586h1.214v-1.214h-.586A4.653,4.653,0,0,0,792.521-631.718Z" transform="translate(-772.007 644.177)" fill="#fff"/>
      <path id="Path_5103" data-name="Path 5103" d="M840.7-1051.724l-.6-.009-.6-.006v1.214h1.214l-.006-.6Z" transform="translate(-817.615 1051.739)" fill="#fff"/>
    </g>
  </g>
</svg>
