<svg xmlns="http://www.w3.org/2000/svg" xmlns:xlink="http://www.w3.org/1999/xlink" width="30" height="30" viewBox="0 0 30 30">
  <defs>
    <clipPath id="clip-path">
      <rect id="Rectangle_17468" data-name="Rectangle 17468" width="30" height="30" transform="translate(28 98)" fill="#fff" stroke="#707070" stroke-width="1"/>
    </clipPath>
  </defs>
  <g id="pragmatic" transform="translate(-28 -98)" clip-path="url(#clip-path)">
    <g id="Group_8873" data-name="Group 8873" transform="translate(32.8 98)">
      <path id="Path_4355" data-name="Path 4355" d="M682.8,171.477c-3.244.2-1.788,4.43,1.8,4.207C688.108,175.466,686.258,171.262,682.8,171.477Z" transform="translate(-670.976 -159.79)" fill="#f19021"/>
      <path id="Path_4356" data-name="Path 4356" d="M569.686,139.849a10.463,10.463,0,1,0,10.455,10.463A10.459,10.459,0,0,0,569.686,139.849Zm0,19.824a9.362,9.362,0,1,1,9.354-9.362A9.358,9.358,0,0,1,569.686,159.673Z" transform="translate(-559.231 -130.774)" fill="#f19021"/>
      <g id="Group_5130" data-name="Group 5130" transform="translate(0.854 0)">
        <path id="Path_4357" data-name="Path 4357" d="M578.89,31.444a5.314,5.314,0,0,0-2.05,4.756,28.675,28.675,0,0,0-3.585-6.528,28.682,28.682,0,0,0,.725,7.414A5.308,5.308,0,0,0,569.6,34.32a8.962,8.962,0,0,1,3.806,4.871,10.39,10.39,0,0,1,5.1-1.544A8.975,8.975,0,0,1,578.89,31.444Z" transform="translate(-569.604 -29.672)" fill="#f19021"/>
      </g>
      <path id="Path_4367" data-name="Path 4367" d="M589.987,240.854v2.189h-.91V237.4h1.916a2.063,2.063,0,0,1,1.465.463,1.662,1.662,0,0,1,.491,1.27,1.619,1.619,0,0,1-.5,1.258,2.081,2.081,0,0,1-1.453.459Zm2.036-1.718a.956.956,0,0,0-.267-.731,1.224,1.224,0,0,0-.858-.252h-.91v1.957h.91Q592.023,240.111,592.023,239.137Z" transform="translate(-586.621 -220.293)" fill="#fff"/>
      <path id="Path_4368" data-name="Path 4368" d="M644.985,242.332h1.948v.711h-2.858V237.4h.91Z" transform="translate(-637.092 -220.293)" fill="#fff"/>
      <path id="Path_4369" data-name="Path 4369" d="M687.24,242.8h-2.379l-.431,1.222h-.974l2.076-5.553h1.046l2.068,5.553h-.974Zm-.256-.7-.934-2.636-.934,2.636Z" transform="translate(-673.232 -221.273)" fill="#fff"/>
      <path id="Path_4370" data-name="Path 4370" d="M738.768,237.4l-1.876,3.587v2.053h-.918V240.99L734.09,237.4h1.054l1.293,2.612,1.293-2.612Z" transform="translate(-719.699 -220.293)" fill="#fff"/>
    </g>
  </g>
</svg>
